<?xml version="1.0" encoding="utf-8"?>
<!-- Generator: Adobe Illustrator 25.2.3, SVG Export Plug-In . SVG Version: 6.00 Build 0)  -->
<svg version="1.1" id="Capa_1" xmlns="http://www.w3.org/2000/svg" xmlns:xlink="http://www.w3.org/1999/xlink" x="0px" y="0px"
	 width="268.1px" height="82.1px" viewBox="0 0 268.1 82.1" style="enable-background:new 0 0 268.1 82.1;" xml:space="preserve">
<style type="text/css">
	.st0{fill-rule:evenodd;clip-rule:evenodd;fill:#FFFFFF;}
	.st1{fill:#FFFFFF;}
</style>
<path class="st0" d="M27.6,21.6c2.5,0,5,0.3,7.5,0.8v11.4c-2.2-0.6-4.5-1-6.8-0.9c-7.7,0-12.8,5.5-12.7,13.2c0,8.7,5.8,13.2,13,13.2
	c2.2,0,4.4-0.3,6.5-0.9V70c-3.1,0.7-6.3,1-9.6,1c-15.3,0-25-9.4-25-24.3C0.6,32.9,10,21.6,27.6,21.6"/>
<path class="st0" d="M50.3,40.9h17.4c0-3.6-1.6-9.6-8.3-9.6C53.2,31.4,50.7,37,50.3,40.9 M63.8,60c3.8,0,7.7-0.4,11.4-1.4v10.7
	c-4.4,1.2-9,1.8-13.5,1.8c-16,0-25.2-9.4-25.2-24.2c0-12,7.4-25.2,23.9-25.2c15.3,0,21.1,11.9,21.1,23.6c0,1.9-0.2,3.9-0.5,5.8H50.4
	C50.9,57.1,56.9,60,63.8,60"/>
<path class="st1" d="M99.9,70H85.2V29.6c0-5,2.8-6.6,11.9-6.9h2.8V70z"/>
<path class="st1" d="M104,22.7h24.9v10.8h-10.6v17.1c0,5.7,1.4,8.3,5.8,8.3c1.5,0,2.9-0.1,4.4-0.4l0.1,11.1c-3.1,1-6.3,1.4-9.6,1.3
	c-4.1,0.1-8-1.4-11-4.2c-2.7-2.8-4.1-7.4-4.1-14V22.7z"/>
<path class="st0" d="M83.6,9.7c0-5,4-9,9-9s9,4,9,9s-4,9-9,9S83.6,14.7,83.6,9.7"/>
<polygon class="st1" points="142.7,39.6 143.9,39.6 145.9,43 147.9,39.6 149.2,39.6 149.2,46.7 148,46.7 148,41.6 145.9,45 
	145.9,45 143.8,41.6 143.8,46.7 142.7,46.7 "/>
<polygon class="st1" points="150.6,39.6 155.5,39.6 155.5,40.7 151.8,40.7 151.8,42.6 155.1,42.6 155.1,43.7 151.8,43.7 151.8,45.6 
	155.5,45.6 155.5,46.7 150.6,46.7 "/>
<polygon class="st1" points="156.6,39.6 157.9,39.6 159.9,43 161.9,39.6 163.1,39.6 163.1,46.7 162,46.7 162,41.6 159.9,45 
	159.8,45 157.8,41.6 157.8,46.7 156.6,46.7 "/>
<path class="st1" d="M164.6,39.6h3c0.6,0,1.3,0.2,1.7,0.6c0.3,0.3,0.5,0.7,0.4,1.2l0,0c0,0.7-0.3,1.3-0.9,1.6
	c0.8,0.2,1.3,0.9,1.3,1.7l0,0c0,1.3-1,2-2.4,2h-3L164.6,39.6z M168.6,41.6c0-0.6-0.4-0.9-1.2-0.9h-1.7v1.9h1.6
	C168.1,42.6,168.6,42.3,168.6,41.6L168.6,41.6z M167.6,43.6h-1.8v2h1.9c0.8,0,1.3-0.3,1.3-1l0,0C168.9,44,168.5,43.6,167.6,43.6"/>
<polygon class="st1" points="171.1,39.6 176,39.6 176,40.7 172.2,40.7 172.2,42.6 175.6,42.6 175.6,43.7 172.2,43.7 172.2,45.6 
	176,45.6 176,46.7 171.1,46.7 "/>
<path class="st1" d="M177.1,39.6h2.9c0.7,0,1.4,0.2,1.9,0.7c0.4,0.4,0.6,1,0.6,1.5l0,0c0.1,1-0.6,1.9-1.5,2.1l1.8,2.7h-1.4l-1.6-2.5
	h-1.5v2.5h-1.2L177.1,39.6z M180,43.1c0.7,0.1,1.3-0.4,1.3-1c0-0.1,0-0.1,0-0.2l0,0c0-0.8-0.5-1.2-1.4-1.2h-1.7v2.4L180,43.1z"/>
<path class="st1" d="M185.9,43.2L185.9,43.2c-0.1-1.9,1.4-3.5,3.3-3.6c1.9-0.1,3.5,1.4,3.6,3.3c0,0.1,0,0.2,0,0.4l0,0
	c0.1,1.9-1.4,3.5-3.3,3.6c-1.9,0.1-3.5-1.4-3.6-3.3C185.9,43.4,185.9,43.3,185.9,43.2 M191.6,43.2L191.6,43.2
	c0.1-1.3-0.9-2.4-2.2-2.5c0,0,0,0,0,0c-1.3,0.1-2.3,1.1-2.2,2.4c0,0,0,0.1,0,0.1l0,0c-0.1,1.3,0.9,2.4,2.2,2.5c0,0,0,0,0.1,0
	c1.3,0,2.3-1.1,2.2-2.4C191.6,43.3,191.6,43.2,191.6,43.2"/>
<polygon class="st1" points="193.9,39.6 198.9,39.6 198.9,40.7 195.1,40.7 195.1,42.7 198.4,42.7 198.4,43.8 195.1,43.8 195.1,46.7 
	193.9,46.7 "/>
<path class="st1" d="M142.7,51.3h3c0.6,0,1.3,0.2,1.7,0.6c0.3,0.3,0.5,0.7,0.4,1.2l0,0c0,0.7-0.3,1.3-0.9,1.6
	c0.8,0.2,1.3,0.9,1.3,1.7l0,0c0,1.3-1,2-2.4,2h-3.1L142.7,51.3z M146.7,53.3c0-0.6-0.4-0.9-1.2-0.9h-1.7v1.9h1.6
	C146.2,54.3,146.7,54,146.7,53.3L146.7,53.3z M145.7,55.4h-1.8v2h1.9c0.8,0,1.3-0.3,1.3-1l0,0C147,55.8,146.6,55.4,145.7,55.4"/>
<path class="st1" d="M151.6,51.3h1.1l2.9,7.2h-1.2l-0.7-1.7h-3.1l-0.7,1.7h-1.2L151.6,51.3z M153.2,55.6l-1.1-2.9l-1.1,2.9H153.2z"
	/>
<path class="st1" d="M155.8,57.4l0.7-0.9c0.5,0.6,1.3,0.9,2.1,0.9c0.7,0,1.2-0.4,1.2-0.9l0,0c0-0.5-0.3-0.8-1.5-1.1
	c-1.4-0.4-2.2-0.8-2.2-2.1l0,0c0-1.1,0.9-2.1,2.1-2.1c0.1,0,0.1,0,0.2,0c0.9,0,1.7,0.3,2.4,0.9l-0.6,1c-0.5-0.4-1.1-0.7-1.8-0.7
	c-0.7,0-1.1,0.4-1.1,0.8l0,0c0,0.5,0.3,0.8,1.6,1.1s2.1,0.9,2.1,2.1l0,0c0,1.2-0.9,2.1-2.1,2.2c-0.1,0-0.2,0-0.3,0
	C157.6,58.6,156.6,58.2,155.8,57.4"/>
<path class="st1" d="M168,58.7l-0.8-0.8c-0.6,0.4-1.3,0.7-2,0.7c-1.9,0-3.5-1.6-3.5-3.6c0,0,0-0.1,0-0.1l0,0c-0.1-2,1.4-3.6,3.4-3.7
	c0,0,0.1,0,0.1,0c1.9,0,3.5,1.6,3.4,3.5c0,0,0,0.1,0,0.1l0,0c0,0.8-0.2,1.6-0.7,2.2l0.8,0.7L168,58.7z M166.4,57.1l-1.1-1.1l0.7-0.9
	l1.2,1.1c0.2-0.4,0.3-0.9,0.3-1.4l0,0c0.1-1.3-0.9-2.4-2.2-2.5c0,0,0,0-0.1,0c-1.3,0.1-2.3,1.2-2.2,2.5c0,0,0,0,0,0.1l0,0
	c-0.1,1.3,0.9,2.4,2.2,2.5c0,0,0,0,0.1,0C165.7,57.4,166,57.3,166.4,57.1"/>
<path class="st1" d="M169.7,55.4v-4.1h1.2v4c0,1.3,0.6,2,1.7,2s1.7-0.7,1.7-2v-4.1h1.2v4c0,2.1-1.1,3.2-2.9,3.2s-2.8-1.1-2.8-3.2"/>
<polygon class="st1" points="176.6,51.3 181.5,51.3 181.5,52.4 177.8,52.4 177.8,54.3 181.1,54.3 181.1,55.4 177.8,55.4 177.8,57.3 
	181.6,57.3 181.6,58.5 176.6,58.5 "/>
<path class="st1" d="M185.2,51.3h3c0.7,0,1.4,0.2,1.9,0.7c0.4,0.4,0.6,1,0.6,1.5l0,0c0.1,1-0.6,1.9-1.6,2.2l1.8,2.7h-1.4l-1.7-2.4
	h-1.5v2.5h-1.2V51.3z M188.1,54.9c0.7,0.1,1.3-0.4,1.3-1c0-0.1,0-0.1,0-0.2l0,0c0-0.8-0.5-1.2-1.4-1.2h-1.7v2.4L188.1,54.9z"/>
<polygon class="st1" points="191.8,51.3 196.7,51.3 196.7,52.4 192.9,52.4 192.9,54.3 196.2,54.3 196.2,55.4 192.9,55.4 192.9,57.3 
	196.7,57.3 196.7,58.5 191.8,58.5 "/>
<path class="st1" d="M197.4,57.4l0.7-0.9c0.5,0.6,1.3,0.9,2.1,0.9c0.7,0,1.2-0.4,1.2-0.9l0,0c0-0.5-0.3-0.8-1.5-1.1
	c-1.4-0.4-2.2-0.8-2.2-2.1l0,0c0-1.1,0.9-2.1,2.1-2.1c0.1,0,0.1,0,0.2,0c0.9,0,1.7,0.3,2.4,0.9l-0.6,1c-0.5-0.4-1.1-0.7-1.8-0.7
	c-0.7,0-1.1,0.4-1.1,0.8l0,0c0,0.5,0.3,0.8,1.6,1.1s2.1,0.9,2.1,2.1l0,0c0,1.2-0.9,2.1-2.1,2.2c-0.1,0-0.2,0-0.3,0
	C199.1,58.6,198.1,58.2,197.4,57.4"/>
<polygon class="st1" points="203.6,51.3 208.5,51.3 208.5,52.4 204.7,52.4 204.7,54.3 208.1,54.3 208.1,55.4 204.7,55.4 204.7,57.3 
	208.5,57.3 208.5,58.5 203.6,58.5 "/>
<path class="st1" d="M212,51.3h1l2.9,7.2h-1.2l-0.7-1.7h-3.1l-0.7,1.7H209L212,51.3z M213.7,55.6l-1.1-2.9l-1.1,2.9H213.7z"/>
<path class="st1" d="M216.8,51.3h3c0.7,0,1.4,0.2,1.9,0.7c0.4,0.4,0.6,1,0.6,1.5l0,0c0.1,1-0.6,1.9-1.6,2.2l1.8,2.7H221l-1.6-2.4
	H218v2.5h-1.2L216.8,51.3z M219.6,54.9c0.7,0.1,1.3-0.4,1.3-1c0,0,0-0.1,0-0.1l0,0c0-0.8-0.5-1.2-1.4-1.2H218v2.4L219.6,54.9z"/>
<path class="st1" d="M223,54.9L223,54.9c-0.1-1.9,1.4-3.6,3.3-3.7c0,0,0.1,0,0.1,0c1,0,1.9,0.4,2.6,1.1l-0.8,0.9
	c-0.5-0.5-1.1-0.9-1.9-0.9c-1.3,0.1-2.3,1.2-2.2,2.4c0,0,0,0,0,0.1l0,0c-0.1,1.3,0.8,2.4,2.1,2.5c0,0,0,0,0.1,0
	c0.7,0,1.4-0.3,1.9-0.9l0.7,0.8c-0.6,0.8-1.6,1.3-2.7,1.3C224.4,58.5,222.9,56.9,223,54.9C223,54.9,223,54.9,223,54.9"/>
<polygon class="st1" points="230,51.3 231.2,51.3 231.2,54.3 234.3,54.3 234.3,51.3 235.5,51.3 235.5,58.5 234.3,58.5 234.3,55.5 
	231.2,55.5 231.2,58.5 230,58.5 "/>
<path class="st1" d="M146.4,69.1c-0.5,0.6-1.2,0.9-2,0.9c-1.1,0.1-2.1-0.7-2.2-1.8c0-0.1,0-0.1,0-0.2l0,0c0-0.9,0.6-1.7,1.4-2
	c-0.3-0.4-0.5-0.9-0.6-1.5l0,0c0-1,0.8-1.8,1.8-1.8c0,0,0.1,0,0.1,0c0.9,0,1.7,0.7,1.8,1.6c0,0,0,0.1,0,0.1l0,0
	c0,0.9-0.6,1.6-1.4,1.9l1.1,1.2c0.3-0.4,0.5-0.9,0.7-1.4l0.9,0.5c-0.3,0.6-0.6,1.1-0.9,1.6l1,1.1l-0.9,0.7L146.4,69.1z M145.7,68.4
	l-1.5-1.6c-0.5,0.2-0.9,0.6-0.9,1.2l0,0c0,0.6,0.4,1,1,1c0,0,0.1,0,0.1,0C145,68.9,145.4,68.7,145.7,68.4 M145.7,64.4L145.7,64.4
	c0-0.4-0.3-0.8-0.7-0.8c0,0,0,0-0.1,0c-0.4,0-0.8,0.3-0.8,0.8c0,0,0,0.1,0,0.1l0,0c0,0.4,0.2,0.8,0.5,1.1
	C145.4,65.3,145.7,65,145.7,64.4"/>
<polygon class="st1" points="153.1,64 151,64 151,62.8 156.4,62.8 156.4,64 154.3,64 154.3,69.9 153.1,69.9 "/>
<polygon class="st1" points="157.4,62.8 162.2,62.8 162.2,63.9 158.5,63.9 158.5,65.8 161.8,65.8 161.8,66.9 158.5,66.9 158.5,68.8 
	162.3,68.8 162.3,69.9 157.4,69.9 "/>
<path class="st1" d="M163.1,66.4L163.1,66.4c-0.1-1.9,1.4-3.6,3.3-3.7c0,0,0.1,0,0.1,0c1,0,1.9,0.4,2.6,1.1l-0.8,0.9
	c-0.5-0.5-1.1-0.9-1.9-0.9c-1.3,0.1-2.3,1.2-2.2,2.5c0,0,0,0,0,0.1l0,0c-0.1,1.3,0.8,2.4,2.1,2.5c0,0,0,0,0.1,0
	c0.7,0,1.4-0.4,1.9-0.9l0.7,0.8c-0.6,0.8-1.6,1.3-2.7,1.3C164.5,70,163,68.4,163.1,66.4C163.1,66.5,163.1,66.4,163.1,66.4"/>
<polygon class="st1" points="170.1,62.8 171.2,62.8 171.2,65.8 174.4,65.8 174.4,62.8 175.6,62.8 175.6,69.9 174.4,69.9 174.4,66.9 
	171.2,66.9 171.2,69.9 170.1,69.9 "/>
<polygon class="st1" points="177,62.8 178.1,62.8 181.6,67.7 181.6,62.8 182.7,62.8 182.7,69.9 181.8,69.9 178.1,64.9 178.1,69.9 
	177,69.9 "/>
<path class="st1" d="M183.9,66.4L183.9,66.4c-0.1-1.9,1.4-3.6,3.4-3.7c0,0,0.1,0,0.1,0c1.9,0,3.5,1.6,3.4,3.5c0,0,0,0.1,0,0.1l0,0
	c0.1,1.9-1.4,3.5-3.3,3.6s-3.5-1.4-3.6-3.3C183.8,66.6,183.8,66.5,183.9,66.4 M189.5,66.4L189.5,66.4c0.1-1.3-0.9-2.4-2.2-2.5
	c0,0,0,0,0,0c-1.3,0.1-2.3,1.1-2.2,2.4c0,0,0,0.1,0,0.1l0,0c-0.1,1.3,0.9,2.4,2.2,2.5c0,0,0,0,0.1,0
	C188.6,68.8,189.6,67.8,189.5,66.4C189.5,66.4,189.5,66.4,189.5,66.4"/>
<polygon class="st1" points="191.9,62.8 193.1,62.8 193.1,68.8 196.5,68.8 196.5,69.9 191.9,69.9 "/>
<path class="st1" d="M196.8,66.4L196.8,66.4c-0.1-1.9,1.4-3.5,3.3-3.6c1.9-0.1,3.5,1.4,3.6,3.3c0,0.1,0,0.2,0,0.4l0,0
	c0.1,1.9-1.4,3.6-3.4,3.7c0,0-0.1,0-0.1,0c-1.9,0-3.5-1.6-3.4-3.5C196.8,66.5,196.8,66.5,196.8,66.4 M202.5,66.4L202.5,66.4
	c0.1-1.3-0.9-2.4-2.2-2.5c0,0,0,0,0,0c-1.3,0.1-2.3,1.2-2.2,2.5c0,0,0,0,0,0l0,0c-0.1,1.3,0.9,2.4,2.2,2.5c0,0,0,0,0.1,0
	C201.5,68.8,202.5,67.7,202.5,66.4C202.5,66.4,202.5,66.4,202.5,66.4"/>
<path class="st1" d="M204.5,66.4L204.5,66.4c-0.1-1.9,1.4-3.6,3.3-3.7c0,0,0.1,0,0.1,0c0.9,0,1.9,0.3,2.5,1l-0.7,1
	c-0.5-0.5-1.2-0.8-1.9-0.8c-1.3,0.1-2.2,1.2-2.1,2.5l0,0c-0.1,1.3,0.8,2.4,2.1,2.5c0.1,0,0.1,0,0.2,0c0.6,0,1.1-0.2,1.6-0.5v-1.3
	h-1.7V66h2.8v3c-0.7,0.7-1.7,1.1-2.8,1.1c-1.9,0-3.4-1.5-3.4-3.4C204.5,66.6,204.5,66.5,204.5,66.4"/>
<polygon class="st1" points="213.6,67.1 211,62.8 212.3,62.8 214.2,66 216.1,62.8 217.4,62.8 214.8,67.1 214.8,69.9 213.6,69.9 "/>
<path class="st1" d="M223,62.8h1.1l2.9,7.2h-1.2l-0.7-1.7H222l-0.7,1.7h-1.2L223,62.8z M224.7,67.1l-1.1-2.9l-1.1,2.9H224.7z"/>
<polygon class="st1" points="227.9,62.8 229,62.8 229,68.8 232.5,68.8 232.5,69.9 227.9,69.9 "/>
<polygon class="st1" points="233.4,62.8 234.6,62.8 234.6,68.8 238,68.8 238,69.9 233.4,69.9 "/>
<rect x="239" y="62.8" class="st1" width="1.2" height="7.1"/>
<path class="st1" d="M244,62.8h1.1l2.9,7.2h-1.2l-0.7-1.7H243l-0.7,1.7h-1.2L244,62.8z M245.7,67.1l-1.1-2.9l-1.1,2.9H245.7z"/>
<polygon class="st1" points="248.9,62.8 249.9,62.8 253.5,67.7 253.5,62.8 254.6,62.8 254.6,69.9 253.6,69.9 250,64.9 250,69.9 
	248.9,69.9 "/>
<path class="st1" d="M255.7,66.4L255.7,66.4c-0.1-1.9,1.4-3.6,3.3-3.7c0,0,0.1,0,0.1,0c1,0,1.9,0.4,2.6,1.1l-0.8,0.9
	c-0.5-0.5-1.1-0.9-1.9-0.9c-1.3,0.1-2.2,1.2-2.1,2.5l0,0c-0.1,1.3,0.8,2.4,2.1,2.5c0,0,0,0,0,0c0.7,0,1.4-0.3,1.8-0.9l0.8,0.8
	c-0.6,0.8-1.6,1.3-2.7,1.3c-1.9-0.1-3.4-1.7-3.4-3.6C255.7,66.5,255.7,66.4,255.7,66.4"/>
<polygon class="st1" points="262.7,62.8 267.6,62.8 267.6,63.9 263.9,63.9 263.9,65.8 267.2,65.8 267.2,66.9 263.9,66.9 263.9,68.8 
	267.7,68.8 267.7,69.9 262.7,69.9 "/>
<rect x="142.1" y="77.8" class="st1" width="33.7" height="3.9"/>
</svg>
